<svg xmlns="http://www.w3.org/2000/svg" viewBox="0 0 1200 675" role="img" aria-labelledby="title desc">
	<title id="title">Interface de uma engine com cena, hierarquia e inspetor</title>
	<desc id="desc">Ilustração editorial de um editor de jogos com viewport central, painel de hierarquia, inspetor e console.</desc>
	<rect width="1200" height="675" fill="#17191f"/>
	<rect x="36" y="34" width="1128" height="607" rx="22" fill="#22252d"/>
	<rect x="36" y="34" width="1128" height="54" rx="22" fill="#2f3440"/>
	<circle cx="70" cy="62" r="8" fill="#ff5f57"/>
	<circle cx="98" cy="62" r="8" fill="#ffbd2e"/>
	<circle cx="126" cy="62" r="8" fill="#28c840"/>
	<rect x="166" y="52" width="164" height="18" rx="9" fill="#596170"/>
	<rect x="62" y="114" width="220" height="392" rx="14" fill="#191c22"/>
	<rect x="307" y="114" width="570" height="392" rx="14" fill="#101319"/>
	<rect x="902" y="114" width="236" height="392" rx="14" fill="#191c22"/>
	<rect x="62" y="526" width="1076" height="84" rx="14" fill="#151820"/>
	<text x="84" y="148" fill="#f0f3f8" font-family="Arial, sans-serif" font-size="24" font-weight="700">Cena</text>
	<g fill="#7f8a9c">
		<rect x="84" y="178" width="136" height="14" rx="7"/>
		<rect x="104" y="212" width="112" height="14" rx="7"/>
		<rect x="104" y="246" width="148" height="14" rx="7"/>
		<rect x="104" y="280" width="98" height="14" rx="7"/>
		<rect x="104" y="314" width="128" height="14" rx="7"/>
	</g>
	<text x="927" y="148" fill="#f0f3f8" font-family="Arial, sans-serif" font-size="24" font-weight="700">Inspector</text>
	<g fill="#343a46">
		<rect x="927" y="178" width="180" height="44" rx="10"/>
		<rect x="927" y="240" width="180" height="44" rx="10"/>
		<rect x="927" y="302" width="180" height="44" rx="10"/>
		<rect x="927" y="364" width="180" height="44" rx="10"/>
	</g>
	<g opacity=".95">
		<rect x="362" y="162" width="460" height="292" rx="18" fill="#242b38"/>
		<path d="M362 454h460L692 306l-82 88-58-62z" fill="#3d6df2"/>
		<circle cx="710" cy="230" r="56" fill="#ffcf4a"/>
		<rect x="452" y="382" width="186" height="46" rx="23" fill="#2bd576"/>
		<rect x="438" y="220" width="92" height="92" rx="18" fill="#ff6b6b"/>
	</g>
	<text x="84" y="575" fill="#7f8a9c" font-family="Arial, sans-serif" font-size="20">Console: prototipar, testar, exportar, repetir.</text>
</svg>
